<svg width="12" height="14" viewBox="0 0 12 14" fill="none" xmlns="http://www.w3.org/2000/svg">
<path d="M10.8319 5.42383V12.9C10.8319 13.2586 10.5642 13.5 10.2929 13.5H1.03863C0.767782 13.5 0.5 13.2587 0.5 12.9V1.09992C0.5 0.740995 0.767687 0.5 1.03863 0.5H6.18218L10.8319 5.42383Z" fill="white" stroke="#93BBD5"/>
<path d="M11.3322 5.22555V5.94989H0V1.10075C0 0.49299 0.465 0.000488281 1.03863 0.000488281H6.39772L11.3319 5.22555H11.3322Z" fill="#93BBD5"/>
<path d="M10.0417 7.02661H1.28946C1.17167 7.02661 1.07617 7.12211 1.07617 7.23991V7.5009C1.07617 7.6187 1.17167 7.71419 1.28946 7.71419H10.0417C10.1595 7.71419 10.2549 7.6187 10.2549 7.5009V7.23991C10.2549 7.12211 10.1595 7.02661 10.0417 7.02661Z" fill="#E6E7E8"/>
<path d="M10.0417 8.32886H1.28946C1.17167 8.32886 1.07617 8.42435 1.07617 8.54215V8.80314C1.07617 8.92094 1.17167 9.01644 1.28946 9.01644H10.0417C10.1595 9.01644 10.2549 8.92094 10.2549 8.80314V8.54215C10.2549 8.42435 10.1595 8.32886 10.0417 8.32886Z" fill="#E6E7E8"/>
<path d="M10.0417 9.6311H1.28946C1.17167 9.6311 1.07617 9.7266 1.07617 9.8444V10.1054C1.07617 10.2232 1.17167 10.3187 1.28946 10.3187H10.0417C10.1595 10.3187 10.2549 10.2232 10.2549 10.1054V9.8444C10.2549 9.7266 10.1595 9.6311 10.0417 9.6311Z" fill="#E6E7E8"/>
<path d="M10.0417 10.9329H1.28946C1.17167 10.9329 1.07617 11.0284 1.07617 11.1462V11.4071C1.07617 11.5249 1.17167 11.6204 1.28946 11.6204H10.0417C10.1595 11.6204 10.2549 11.5249 10.2549 11.4071V11.1462C10.2549 11.0284 10.1595 10.9329 10.0417 10.9329Z" fill="#E6E7E8"/>
<path d="M10.0417 12.2351H1.28946C1.17167 12.2351 1.07617 12.3306 1.07617 12.4484V12.7094C1.07617 12.8272 1.17167 12.9227 1.28946 12.9227H10.0417C10.1595 12.9227 10.2549 12.8272 10.2549 12.7094V12.4484C10.2549 12.3306 10.1595 12.2351 10.0417 12.2351Z" fill="#E6E7E8"/>
<path opacity="0.15" d="M11.331 5.22506L7.60143 5.18465C6.79795 5.18465 6.14648 4.53351 6.14648 3.72968L6.39687 0L11.331 5.22506Z" fill="black"/>
<path d="M11.3326 5.22506L7.78317 4.93427C7.01844 4.93427 6.39844 4.31458 6.39844 3.5495V0L11.3326 5.22506Z" fill="#B3E4FF"/>
<path d="M0.912109 3.55933H1.17243V3.85907H0.912109V3.55933Z" fill="white"/>
<path d="M2.53566 3.85847H2.30945V3.67168H2.30382C2.27269 3.78495 2.13988 3.89789 1.97561 3.89789C1.61626 3.89789 1.48047 3.57828 1.48047 3.10002C1.48047 2.78306 1.53147 2.30215 1.95872 2.30215C2.09451 2.30215 2.23891 2.38429 2.29256 2.51445H2.29819V1.83813H2.53566V3.85814V3.85847ZM2.00674 3.69453C2.26971 3.69453 2.31243 3.44546 2.31243 3.10035C2.31243 2.80624 2.26143 2.50617 2.00674 2.50617C1.78616 2.50617 1.72953 2.73801 1.72953 3.10035C1.72953 3.46269 1.78616 3.69453 2.00674 3.69453Z" fill="white"/>
<path d="M3.31958 2.30249C3.75808 2.30249 3.86572 2.67311 3.86572 3.10036C3.86572 3.52761 3.75543 3.89823 3.31958 3.89823C2.88373 3.89823 2.77344 3.52761 2.77344 3.10036C2.77344 2.67311 2.88373 2.30249 3.31958 2.30249ZM3.61666 3.10036C3.61666 2.77214 3.56864 2.48929 3.31395 2.48929C3.0735 2.48929 3.0225 2.77214 3.0225 3.10036C3.0225 3.42858 3.07052 3.71143 3.31395 3.71143C3.55738 3.71143 3.61666 3.42858 3.61666 3.10036Z" fill="white"/>
<path d="M4.82565 2.80311C4.82565 2.65605 4.76637 2.48913 4.58521 2.48913C4.43816 2.48913 4.28812 2.56266 4.28812 3.11709C4.28812 3.31515 4.29077 3.71127 4.5766 3.71127C4.78028 3.71127 4.82565 3.49632 4.82565 3.33204H5.06312C5.06312 3.5725 4.94422 3.89774 4.56533 3.89774C4.18645 3.89774 4.03906 3.64039 4.03906 3.11974C4.03906 2.74051 4.11259 2.302 4.57924 2.302C4.99225 2.302 5.06312 2.62724 5.06312 2.80278H4.82565V2.80311Z" fill="white"/>
</svg>
