<svg width="12" height="14" viewBox="0 0 12 14" fill="none" xmlns="http://www.w3.org/2000/svg">
<path d="M11.1641 5.42383V12.9C11.1641 13.2586 10.8965 13.5 10.6252 13.5H1.37068C1.09981 13.5 0.832031 13.2587 0.832031 12.9V1.09992C0.832031 0.741004 1.09972 0.5 1.37068 0.5H6.51434L11.1641 5.42383Z" fill="white" stroke="#F9A65A"/>
<path d="M11.6641 5.22555V5.94989H0.332031V1.10075C0.332031 0.49299 0.79704 0.000488281 1.37068 0.000488281H6.72988L11.6641 5.22555Z" fill="#F9A65A"/>
<path d="M10.3739 7.02661H1.6215C1.5037 7.02661 1.4082 7.12211 1.4082 7.23991V7.5009C1.4082 7.6187 1.5037 7.71419 1.6215 7.71419H10.3739C10.4917 7.71419 10.5872 7.6187 10.5872 7.5009V7.23991C10.5872 7.12211 10.4917 7.02661 10.3739 7.02661Z" fill="#E6E7E8"/>
<path d="M10.3739 8.32886H1.6215C1.5037 8.32886 1.4082 8.42435 1.4082 8.54215V8.80314C1.4082 8.92094 1.5037 9.01644 1.6215 9.01644H10.3739C10.4917 9.01644 10.5872 8.92094 10.5872 8.80314V8.54215C10.5872 8.42435 10.4917 8.32886 10.3739 8.32886Z" fill="#E6E7E8"/>
<path d="M10.3739 9.6311H1.6215C1.5037 9.6311 1.4082 9.7266 1.4082 9.8444V10.1054C1.4082 10.2232 1.5037 10.3187 1.6215 10.3187H10.3739C10.4917 10.3187 10.5872 10.2232 10.5872 10.1054V9.8444C10.5872 9.7266 10.4917 9.6311 10.3739 9.6311Z" fill="#E6E7E8"/>
<path d="M10.3739 10.9329H1.6215C1.5037 10.9329 1.4082 11.0284 1.4082 11.1462V11.4071C1.4082 11.5249 1.5037 11.6204 1.6215 11.6204H10.3739C10.4917 11.6204 10.5872 11.5249 10.5872 11.4071V11.1462C10.5872 11.0284 10.4917 10.9329 10.3739 10.9329Z" fill="#E6E7E8"/>
<path d="M10.3739 12.2351H1.6215C1.5037 12.2351 1.4082 12.3306 1.4082 12.4484V12.7094C1.4082 12.8272 1.5037 12.9227 1.6215 12.9227H10.3739C10.4917 12.9227 10.5872 12.8272 10.5872 12.7094V12.4484C10.5872 12.3306 10.4917 12.2351 10.3739 12.2351Z" fill="#E6E7E8"/>
<path opacity="0.15" d="M11.6632 5.22506L7.93349 5.18465C7.12999 5.18465 6.47852 4.53351 6.47852 3.72968L6.7289 0L11.6632 5.22506Z" fill="black"/>
<path d="M11.6628 5.22506L8.11327 4.93426C7.34853 4.93426 6.72852 4.31458 6.72852 3.5495V0L11.6628 5.22506Z" fill="#FFBC85"/>
<path d="M1.27148 3.56372H1.53181V3.86346H1.27148V3.56372Z" fill="white"/>
<path d="M1.78596 2.34717H2.04629L2.32086 2.88769L2.59807 2.34717H2.8584L2.46228 3.07416L2.87264 3.86341H2.61232L2.3096 3.2636L2.01814 3.86341H1.75781L2.1738 3.07416L1.7863 2.34717H1.78596Z" fill="white"/>
<path d="M3.06445 1.84351H3.30226V3.86351H3.06445V1.84351Z" fill="white"/>
<path d="M4.27304 2.79093C4.27304 2.5985 4.22204 2.49384 4.04948 2.49384C3.97297 2.49384 3.8034 2.51371 3.8034 2.72568C3.8034 2.90387 3.99019 2.93799 4.17666 3.00025C4.36048 3.06252 4.54728 3.12743 4.54728 3.4275C4.54728 3.74712 4.34061 3.90278 4.05776 3.90278C3.54274 3.90278 3.53711 3.5209 3.53711 3.36524H3.77491C3.77491 3.54906 3.82592 3.71598 4.05776 3.71598C4.13427 3.71598 4.30947 3.67922 4.30947 3.46427C4.30947 3.26058 4.12268 3.21818 3.93886 3.15592C3.75504 3.09365 3.56526 3.03999 3.56526 2.72601C3.56526 2.44317 3.78584 2.30737 4.04915 2.30737C4.49064 2.30737 4.50753 2.61307 4.51018 2.79126H4.27238L4.27304 2.79093Z" fill="white"/>
</svg>
